<svg version="1.1" id="Layer_1" xmlns="http://www.w3.org/2000/svg" xmlns:xlink="http://www.w3.org/1999/xlink" x="0px" y="0px"
	 width="100%" viewBox="0 0 185 88" enable-background="new 0 0 185 88" xml:space="preserve">
<path fill="#E7EAEB" opacity="1.000000" stroke="none" 
	d="
M186.000000,77.000000 
	C186.000000,80.991005 186.000000,84.982018 186.000000,89.000000 
	C125.312439,89.000000 64.624878,89.000000 3.469514,88.539581 
	C3.008671,84.390610 3.015629,80.702072 3.488683,77.008957 
	C17.207718,77.003227 30.460953,77.045502 43.713299,76.956131 
	C45.806843,76.942017 47.896378,76.333206 50.141106,76.297180 
	C50.980976,76.963448 51.648331,77.606995 52.357094,77.656387 
	C57.609741,78.022438 62.868752,78.411285 68.129898,78.481125 
	C70.046257,78.506569 71.967262,77.651131 73.899002,77.261284 
	C74.944168,77.050377 76.016434,76.973732 77.433640,76.934776 
	C78.525261,77.112907 79.259705,77.192780 80.222191,77.448799 
	C81.247116,76.997902 82.043999,76.370842 82.849579,75.736946 
	C86.866867,79.407707 90.432129,79.836143 93.286331,76.950058 
	C93.522263,76.976799 93.996201,77.006859 94.232620,76.868210 
	C94.913193,76.157196 95.357353,75.584839 95.961258,75.339539 
	C96.114334,76.382111 96.107651,77.097633 96.286346,78.122818 
	C97.979622,77.957268 99.487503,77.482063 101.250359,77.004929 
	C101.675293,77.001961 101.845268,77.000900 102.224884,77.283264 
	C106.110970,78.061981 109.779160,78.893196 113.465584,78.984032 
	C121.634178,79.185318 129.811935,79.014870 138.395264,78.996902 
	C144.440598,78.332161 150.064117,77.264763 155.715393,77.089066 
	C165.801422,76.775482 175.904221,77.000305 186.000000,77.000000 
z"/>
<path fill="#EAEAEA" opacity="1.000000" stroke="none" 
	d="
M3.000000,1.000000 
	C64.000008,1.000000 125.000015,1.000000 186.000000,1.000000 
	C186.000000,4.383476 186.000000,7.708782 185.531342,11.516979 
	C167.531708,11.999918 149.999344,11.896066 132.471558,12.132640 
	C130.301453,12.161931 128.155777,14.002255 125.571640,15.001065 
	C122.587326,14.746276 120.030151,14.493797 117.320602,14.239574 
	C117.168221,14.237831 117.005783,13.979954 116.960480,13.662361 
	C116.278526,12.904401 115.641884,12.464034 114.536324,12.015816 
	C104.829208,11.699010 95.592133,11.272172 86.351845,11.184634 
	C84.590340,11.167947 82.816132,12.491549 81.064560,13.138280 
	C81.081337,13.079784 81.185791,13.142246 80.834564,13.057400 
	C79.499924,12.445601 78.513168,11.461428 77.533638,11.468565 
	C72.524651,11.505054 67.518166,11.950983 62.509621,11.972102 
	C45.282211,12.044744 28.054094,12.042017 10.826817,11.955208 
	C8.222763,11.942084 5.621732,11.329199 3.015000,10.540045 
	C3.007132,7.057566 3.003566,4.028783 3.000000,1.000000 
z"/>
<path fill="#FCFDFD" opacity="1.000000" stroke="none" 
	d="
M2.500000,1.000000 
	C3.003566,4.028783 3.007132,7.057566 3.007824,10.994510 
	C3.006819,14.932022 3.008686,17.961374 3.006619,21.449261 
	C2.997327,31.272448 2.977708,30.932842 12.713300,30.370411 
	C19.365473,29.986111 26.080374,30.787310 32.769981,30.922636 
	C39.163242,31.051966 45.561890,31.114672 51.954826,31.007338 
	C59.067139,30.887930 66.465660,28.229643 72.947205,33.940556 
	C71.348022,38.823555 69.666283,43.423206 67.639633,48.175285 
	C65.209320,48.884155 63.123920,49.440594 61.026844,50.017570 
	C61.015167,50.038105 60.968620,50.029995 60.709091,50.109791 
	C60.360832,50.518280 60.272102,50.846970 60.225266,51.556435 
	C60.227070,52.955975 60.186977,53.974743 59.788055,55.152298 
	C56.192642,54.943581 52.956055,54.576077 49.498077,54.129330 
	C48.835476,53.900986 48.394268,53.751884 47.763062,53.385117 
	C47.390484,53.106113 47.207897,53.044781 46.860760,52.677917 
	C45.495712,49.928371 44.295216,47.484356 42.751621,45.065613 
	C41.981274,45.555958 41.554028,46.021030 41.117973,46.755367 
	C40.999920,47.366253 40.890682,47.707882 40.574005,48.246109 
	C40.522640,49.280998 40.678703,50.119286 40.985088,51.202156 
	C41.473618,52.125473 41.811825,52.804195 42.185570,53.791458 
	C42.489525,54.399994 42.757942,54.699993 43.137276,55.212627 
	C43.248199,55.425266 43.375725,55.887657 43.036480,56.026398 
	C41.746872,57.384693 40.796509,58.604248 38.739750,61.243595 
	C37.601135,59.277153 36.725632,57.765121 36.198997,56.855598 
	C33.573318,57.282990 31.376110,57.903023 29.166546,57.950737 
	C22.725555,58.089832 16.279627,57.999165 9.835635,58.000420 
	C3.001170,58.001747 3.001171,58.002670 3.006727,65.407310 
	C3.009165,66.871696 3.012424,67.936714 3.011269,69.446030 
	C3.012099,72.264732 3.017344,74.639130 3.022588,77.013527 
	C3.015629,80.702072 3.008671,84.390610 3.000856,88.539581 
	C-0.047565,89.610962 1.035725,87.296608 1.032654,86.027245 
	C0.985735,66.633911 1.000000,47.240429 1.000000,27.846985 
	C1.000000,19.559187 0.977189,11.271208 1.043256,2.983937 
	C1.048548,2.320124 1.666667,1.661197 2.500000,1.000000 
z"/>
<path fill="#FCFDFD" opacity="1.000000" stroke="none" 
	d="
M186.000000,32.000000 
	C186.000000,40.687565 186.000000,49.375126 185.531357,58.531540 
	C176.940231,59.279217 168.808975,59.895767 160.699203,59.685062 
	C157.006531,59.589119 153.356323,57.857952 149.686859,56.868496 
	C149.794189,56.390835 149.901520,55.913170 150.008835,55.435509 
	C147.334213,56.952442 144.659592,58.469376 141.985596,59.630989 
	C141.972107,58.801807 141.957977,58.327946 142.131943,57.606972 
	C143.273071,56.562469 144.226120,55.765076 145.365768,54.855347 
	C145.778351,54.542576 145.921707,54.294399 146.013199,53.745995 
	C146.018341,53.325893 145.992706,53.158276 146.144165,52.820839 
	C146.753845,52.427032 147.186462,52.203041 147.834442,51.951012 
	C148.169159,51.849796 148.400146,51.737404 148.390366,51.709602 
	C148.306290,51.470238 148.178741,51.246140 148.058914,50.763672 
	C148.028320,50.342522 148.002960,50.175186 147.985962,49.754807 
	C147.991547,49.332993 147.988785,49.164230 148.017303,48.748734 
	C148.048553,48.502007 147.977371,48.009724 148.224548,47.823090 
	C147.704407,46.203442 146.937103,44.770432 146.169815,43.337418 
	C145.842499,43.506245 145.515198,43.675076 145.187897,43.843903 
	C145.187897,44.758175 145.187897,45.672451 145.296539,46.914650 
	C144.695648,48.849640 143.986130,50.456699 143.034180,52.232079 
	C142.687302,52.567184 142.582901,52.733974 142.200409,52.942123 
	C141.183151,53.524120 140.443970,54.064766 139.773041,54.783962 
	C139.841309,54.962513 139.739563,54.594040 139.413055,54.652946 
	C138.539734,55.063354 137.992935,55.414852 137.310028,55.747192 
	C137.173920,55.728035 136.994370,55.936169 136.614105,55.948181 
	C133.587723,56.691685 130.941620,57.423172 127.845139,58.096821 
	C125.596550,58.037037 123.798347,58.035091 121.836845,57.783600 
	C121.119225,57.355854 120.564888,57.177650 120.009293,56.727196 
	C119.997391,56.273739 119.986771,56.092545 120.158081,55.681541 
	C120.967323,54.991062 121.594620,54.530396 122.588020,54.049667 
	C127.519302,50.747021 128.627670,42.353931 124.967216,39.029282 
	C125.002251,39.007858 124.947433,39.069317 124.902756,38.831062 
	C124.713028,38.283031 124.480095,38.068783 124.101608,37.941410 
	C124.043930,37.932751 124.080582,37.822006 124.032898,37.516609 
	C123.531036,36.864731 123.076851,36.518250 122.327209,36.041573 
	C120.991707,35.182011 119.951660,34.452644 118.767189,33.622005 
	C119.965141,32.518749 120.930527,31.629681 122.039459,31.088764 
	C123.578865,32.079262 125.025642,33.362801 126.362038,33.256649 
	C133.390701,32.698345 140.376755,31.566113 147.408569,31.102461 
	C150.566818,30.894215 153.794098,32.078968 156.995392,32.111893 
	C166.662186,32.211304 176.331604,32.056004 186.000000,32.000000 
M139.748962,41.017136 
	C140.368927,41.428005 140.988892,41.838875 141.608871,42.249741 
	C141.763000,41.850658 141.917145,41.451576 142.071289,41.052494 
	C141.287140,40.851326 140.502975,40.650158 139.748962,41.017136 
z"/>
<path fill="#F5F7F8" opacity="1.000000" stroke="none" 
	d="
M141.984970,59.986305 
	C144.659592,58.469376 147.334213,56.952442 150.008835,55.435509 
	C149.901520,55.913170 149.794189,56.390835 149.686859,56.868496 
	C153.356323,57.857952 157.006531,59.589119 160.699203,59.685062 
	C168.808975,59.895767 176.940231,59.279217 185.531357,59.000198 
	C186.000000,61.700016 186.000000,64.400032 185.531342,67.550018 
	C168.726791,66.725906 152.289764,70.422264 135.567566,67.001343 
	C132.754532,66.662766 130.371475,66.324387 128.162384,65.670311 
	C132.885880,63.565182 137.435425,61.775745 141.984970,59.986305 
z"/>
<path fill="#F7F8F8" opacity="1.000000" stroke="none" 
	d="
M186.000000,31.555836 
	C176.331604,32.056004 166.662186,32.211304 156.995392,32.111893 
	C153.794098,32.078968 150.566818,30.894215 147.408569,31.102461 
	C140.376755,31.566113 133.390701,32.698345 126.362038,33.256649 
	C125.025642,33.362801 123.578865,32.079262 122.109489,30.740364 
	C122.696198,27.695824 123.356430,25.347834 124.408432,23.002281 
	C128.555389,23.336445 132.304504,23.799458 136.066986,23.973637 
	C144.965347,24.385569 153.869537,24.899006 162.772354,24.918173 
	C170.514206,24.934845 178.257401,24.330122 186.000000,24.000000 
	C186.000000,26.370558 186.000000,28.741116 186.000000,31.555836 
z"/>
<path fill="#F0F0F0" opacity="1.000000" stroke="none" 
	d="
M135.997559,67.001526 
	C152.289764,70.422264 168.726791,66.725906 185.531342,68.000000 
	C186.000000,70.700012 186.000000,73.400032 186.000000,76.550018 
	C175.904221,77.000305 165.801422,76.775482 155.715393,77.089066 
	C150.064117,77.264763 144.440598,78.332161 138.393295,78.612534 
	C137.316193,75.824471 136.650360,73.421669 135.988403,70.617119 
	C135.994019,69.144096 135.995789,68.072807 135.997559,67.001526 
z"/>
<path fill="#F1F3F4" opacity="1.000000" stroke="none" 
	d="
M186.000000,23.571537 
	C178.257401,24.330122 170.514206,24.934845 162.772354,24.918173 
	C153.869537,24.899006 144.965347,24.385569 136.066986,23.973637 
	C132.304504,23.799458 128.555389,23.336445 124.237534,22.691769 
	C121.607567,19.666319 119.540268,16.953821 117.472977,14.241320 
	C120.030151,14.493797 122.587326,14.746276 125.614250,15.376471 
	C126.733444,18.182831 127.928802,19.470312 130.763962,18.674730 
	C132.638229,18.148783 134.675293,18.032850 136.640320,18.027163 
	C153.093430,17.979549 169.546753,18.000038 186.000000,18.000000 
	C186.000000,19.714357 186.000000,21.428717 186.000000,23.571537 
z"/>
<path fill="#EFEFEF" opacity="1.000000" stroke="none" 
	d="
M186.000000,17.571537 
	C169.546753,18.000038 153.093430,17.979549 136.640320,18.027163 
	C134.675293,18.032850 132.638229,18.148783 130.763962,18.674730 
	C127.928802,19.470312 126.733444,18.182831 126.041389,15.378780 
	C128.155777,14.002255 130.301453,12.161931 132.471558,12.132640 
	C149.999344,11.896066 167.531708,11.999918 185.531342,11.999935 
	C186.000000,13.714358 186.000000,15.428716 186.000000,17.571537 
z"/>
<path fill="#EEF4F6" opacity="1.000000" stroke="none" 
	d="
M135.567566,67.001343 
	C135.995789,68.072807 135.994019,69.144096 135.585037,70.612404 
	C130.832764,71.177994 126.487709,71.346565 122.676628,71.494415 
	C120.208748,72.479355 117.892509,74.106499 115.557159,74.134399 
	C113.307953,74.161255 109.341599,77.369072 108.679237,71.918816 
	C106.871628,72.198486 104.792534,72.034988 103.353615,72.916496 
	C102.422935,73.486641 102.428970,75.585831 102.015244,76.999832 
	C101.845268,77.000900 101.675293,77.001961 101.252586,77.001579 
	C100.999847,77.000145 100.994545,77.001877 100.888382,76.781784 
	C100.584679,76.286499 100.324181,76.098534 99.708038,75.983765 
	C99.220200,75.961418 99.025032,75.953094 98.851852,75.699677 
	C98.809433,75.133156 98.764030,74.809059 98.757980,74.061676 
	C94.652138,72.798050 90.556175,71.500496 86.392380,71.223877 
	C80.840439,70.855034 75.228783,71.141930 69.656822,71.424263 
	C67.028610,71.557434 63.447269,70.511177 62.738270,74.819733 
	C61.995178,74.113266 61.496124,73.555214 60.695145,72.850037 
	C56.929909,71.804367 53.466599,70.905815 49.914246,69.839874 
	C49.551994,69.784096 49.278786,69.895721 49.002846,70.003937 
	C49.000118,70.000519 49.007740,70.007812 48.561874,70.005280 
	C33.082565,69.669067 18.049126,69.335396 3.015683,69.001724 
	C3.012424,67.936714 3.009165,66.871696 3.451839,65.404785 
	C16.699673,65.529503 29.472572,65.319206 42.175644,64.176430 
	C43.160812,64.286842 44.257053,65.602654 45.253315,65.530861 
	C48.862415,65.270805 52.437958,64.545006 56.452133,63.993568 
	C58.305820,63.942379 59.733536,63.892582 61.106422,63.832870 
	C61.051586,63.822960 61.150951,63.772491 61.170300,64.178978 
	C63.529045,64.954010 65.868446,65.322556 68.228378,65.632599 
	C68.248924,65.574097 68.372253,65.561127 68.314423,65.990570 
	C69.469078,66.945068 70.647255,67.793434 71.901329,67.926491 
	C74.354912,68.186790 76.852020,68.008133 79.329041,68.081284 
	C89.034027,68.367889 98.743027,68.982643 108.440163,68.827408 
	C111.981239,68.770721 115.493401,66.908142 119.231888,65.731674 
	C119.757027,65.663605 120.069038,65.733292 120.865128,65.857498 
	C123.562279,65.936676 125.775352,65.961334 127.988434,65.985992 
	C130.371475,66.324387 132.754532,66.662766 135.567566,67.001343 
z"/>
<path fill="#F0F1F1" opacity="1.000000" stroke="none" 
	d="
M3.011269,69.446030 
	C18.049126,69.335396 33.082565,69.669067 48.567333,70.388748 
	C49.341694,72.516289 49.664730,74.257820 49.987766,75.999344 
	C47.896378,76.333206 45.806843,76.942017 43.713299,76.956131 
	C30.460953,77.045502 17.207718,77.003227 3.488683,77.008957 
	C3.017344,74.639130 3.012099,72.264732 3.011269,69.446030 
z"/>
<path fill="#DFF0F7" opacity="1.000000" stroke="none" 
	d="
M50.141106,76.297180 
	C49.664730,74.257820 49.341694,72.516289 49.013199,70.391289 
	C49.007740,70.007812 49.000118,70.000519 49.252251,70.004211 
	C49.504383,70.007912 50.003284,70.007263 50.003284,70.007263 
	C53.466599,70.905815 56.929909,71.804367 60.498016,73.103424 
	C59.827950,73.955093 59.053093,74.406273 58.278233,74.857452 
	C58.363197,75.310356 58.448162,75.763260 58.533127,76.216171 
	C62.629246,76.019714 66.725365,75.823265 70.821487,75.626816 
	C70.793747,75.163017 70.766014,74.699219 70.738274,74.235420 
	C68.152954,74.479660 65.567627,74.723907 62.982307,74.968147 
	C63.447269,70.511177 67.028610,71.557434 69.656822,71.424263 
	C75.228783,71.141930 80.840439,70.855034 86.392380,71.223877 
	C90.556175,71.500496 94.652138,72.798050 98.410736,74.026817 
	C97.295952,74.612541 96.548729,74.812515 95.801506,75.012482 
	C95.357353,75.584839 94.913193,76.157196 94.313416,76.492172 
	C94.020439,75.365486 93.883087,74.476173 93.745743,73.586861 
	C93.513962,73.604233 93.282188,73.621597 93.050407,73.638969 
	C93.050407,74.733757 93.050407,75.828537 93.050407,76.923325 
	C90.432129,79.836143 86.866867,79.407707 82.849579,75.736946 
	C82.043999,76.370842 81.247116,76.997902 80.494446,77.170822 
	C80.003960,75.866486 79.469269,75.016289 78.934578,74.166084 
	C78.315208,75.056229 77.695839,75.946373 77.076469,76.836517 
	C76.016434,76.973732 74.944168,77.050377 73.899002,77.261284 
	C71.967262,77.651131 70.046257,78.506569 68.129898,78.481125 
	C62.868752,78.411285 57.609741,78.022438 52.357094,77.656387 
	C51.648331,77.606995 50.980976,76.963448 50.141106,76.297180 
z"/>
<path fill="#DFF0F7" opacity="1.000000" stroke="none" 
	d="
M102.224876,77.283264 
	C102.428970,75.585831 102.422935,73.486641 103.353615,72.916496 
	C104.792534,72.034988 106.871628,72.198486 108.679237,71.918816 
	C109.341599,77.369072 113.307953,74.161255 115.557159,74.134399 
	C117.892509,74.106499 120.208748,72.479355 122.676628,71.494415 
	C126.487709,71.346565 130.832764,71.177994 135.581177,71.014145 
	C136.650360,73.421669 137.316193,75.824471 137.983994,78.611649 
	C129.811935,79.014870 121.634178,79.185318 113.465584,78.984032 
	C109.779160,78.893196 106.110970,78.061981 102.224876,77.283264 
z"/>
<path fill="#6299B4" opacity="1.000000" stroke="none" 
	d="
M77.433640,76.934784 
	C77.695839,75.946373 78.315208,75.056229 78.934578,74.166084 
	C79.469269,75.016289 80.003960,75.866486 80.266403,76.994667 
	C79.259705,77.192780 78.525261,77.112907 77.433640,76.934784 
z"/>
<path fill="#DFF0F7" opacity="1.000000" stroke="none" 
	d="
M98.829857,75.944763 
	C99.025032,75.953094 99.220200,75.961418 99.815002,76.203430 
	C100.410919,76.713326 100.670883,76.901573 100.994545,77.001877 
	C100.994545,77.001877 100.999847,77.000145 100.997620,77.003494 
	C99.487503,77.482063 97.979622,77.957268 96.587593,78.141983 
	C97.412254,77.215919 98.121056,76.580338 98.829857,75.944763 
z"/>
<path fill="#5189A1" opacity="1.000000" stroke="none" 
	d="
M98.851852,75.699677 
	C98.121056,76.580338 97.412254,77.215919 96.402206,77.832321 
	C96.107651,77.097633 96.114334,76.382111 95.961258,75.339539 
	C96.548729,74.812515 97.295952,74.612541 98.390411,74.447433 
	C98.764030,74.809059 98.809433,75.133156 98.851852,75.699677 
z"/>
<path fill="#3C7D96" opacity="1.000000" stroke="none" 
	d="
M93.286331,76.950058 
	C93.050407,75.828537 93.050407,74.733757 93.050407,73.638969 
	C93.282188,73.621597 93.513962,73.604233 93.745743,73.586861 
	C93.883087,74.476173 94.020439,75.365486 94.076996,76.630829 
	C93.996201,77.006859 93.522263,76.976799 93.286331,76.950058 
z"/>
<path fill="#0E81BA" opacity="1.000000" stroke="none" 
	d="
M117.320595,14.239576 
	C119.540268,16.953821 121.607567,19.666319 123.845764,22.689331 
	C123.356430,25.347834 122.696198,27.695824 121.965935,30.392212 
	C120.930527,31.629681 119.965141,32.518749 118.767189,33.622005 
	C119.951660,34.452644 120.991707,35.182011 122.422897,36.311546 
	C123.236214,37.081814 123.658401,37.451912 124.080582,37.822006 
	C124.080582,37.822006 124.043930,37.932751 124.126938,38.189297 
	C124.349327,38.779579 124.595154,38.987404 124.947433,39.069317 
	C124.947433,39.069317 125.002251,39.007858 124.991730,39.423824 
	C126.847336,45.123306 125.103096,49.706749 122.221924,54.069733 
	C121.594620,54.530396 120.967323,54.991062 119.843163,55.693253 
	C118.823715,56.255608 118.301125,56.576435 117.428101,56.905460 
	C115.716667,57.229668 114.355652,57.545673 112.786285,57.763519 
	C112.577919,57.665359 112.129272,57.559078 111.890076,57.389156 
	C110.741051,57.343739 109.831207,57.468243 108.678360,57.651031 
	C108.435349,57.709312 107.975853,57.905941 107.655807,57.808865 
	C106.899139,57.776402 106.462524,57.841015 105.580643,57.820015 
	C102.424797,57.788334 99.714211,57.842270 96.582794,57.796288 
	C94.439980,57.767681 92.717987,57.838993 90.783348,57.804207 
	C90.570702,57.698112 90.112640,57.571308 89.952835,57.404716 
	C89.503471,57.064850 89.206673,57.051430 88.875854,57.191727 
	C88.849068,57.185596 88.799736,57.161346 88.854248,56.737850 
	C88.705330,54.178955 88.501884,52.043556 88.289261,49.585419 
	C88.201920,48.841908 88.123764,48.421131 88.121887,47.774818 
	C88.198174,47.549286 88.266823,47.078091 88.489334,46.727097 
	C88.532547,38.920292 88.353256,31.464481 87.954803,23.823593 
	C84.386787,31.970961 81.001686,40.289280 77.741348,48.656216 
	C77.389091,49.560211 77.760063,50.746029 77.501465,51.972660 
	C76.161613,53.919132 75.115852,55.694061 73.606232,57.423267 
	C70.375938,57.351158 67.571877,57.588081 64.857117,57.200123 
	C63.215450,56.965523 61.712276,55.761806 60.146881,54.993515 
	C60.186977,53.974743 60.227070,52.955975 60.408039,51.407120 
	C60.723660,50.611961 60.863564,50.329613 60.968620,50.029995 
	C60.968620,50.029995 61.015167,50.038105 61.445587,50.060852 
	C63.912186,49.396679 65.948364,48.709766 67.984550,48.022850 
	C69.666283,43.423206 71.348022,38.823555 72.932648,33.925896 
	C72.835548,33.627884 72.864250,33.606918 73.163269,33.551476 
	C73.711037,32.703930 73.959793,31.911819 74.167694,31.095457 
	C74.126831,31.071201 74.125153,31.166225 74.380577,30.986111 
	C74.754723,30.202950 74.873436,29.599907 75.240753,28.739334 
	C76.054512,26.760109 76.619675,25.038410 77.444839,23.057190 
	C78.865166,19.579195 80.025482,16.360720 81.185791,13.142246 
	C81.185791,13.142246 81.081337,13.079784 81.530693,13.104698 
	C92.961296,13.153404 103.942535,13.177196 115.116043,13.419598 
	C115.874130,13.752124 116.439957,13.866038 117.005783,13.979954 
	C117.005783,13.979954 117.168221,14.237831 117.320595,14.239576 
M113.291420,48.984436 
	C113.763626,46.557163 115.088966,43.848022 114.412399,41.800301 
	C113.950310,40.401680 110.754440,39.387501 108.674484,39.155708 
	C104.931358,38.738579 101.108391,39.037876 97.041435,39.037876 
	C97.041435,42.928833 97.041435,46.308342 97.041435,50.510014 
	C102.437515,50.150738 107.506569,49.813232 113.291420,48.984436 
M97.773232,30.914509 
	C101.575867,30.947189 105.479118,31.499662 109.138351,30.791422 
	C110.945168,30.441713 113.447403,27.819717 113.527603,26.126068 
	C113.602211,24.550737 111.080078,21.732193 109.346710,21.418304 
	C105.406464,20.704784 101.248535,21.193401 97.096054,21.193401 
	C97.096054,24.660206 97.096054,27.458467 97.773232,30.914509 
z"/>
<path fill="#EEF0F1" opacity="1.000000" stroke="none" 
	d="
M80.834564,13.057400 
	C80.025482,16.360720 78.865166,19.579195 77.284836,22.717276 
	C75.636902,20.181013 74.161903,19.182465 70.976776,19.687117 
	C65.141602,20.611641 59.162697,20.893457 53.239285,20.946350 
	C36.497578,21.095844 19.753624,20.993715 3.010554,20.990726 
	C3.008686,17.961374 3.006819,14.932022 3.012127,11.448205 
	C5.621732,11.329199 8.222763,11.942084 10.826817,11.955208 
	C28.054094,12.042017 45.282211,12.044744 62.509621,11.972102 
	C67.518166,11.950983 72.524651,11.505054 77.533638,11.468565 
	C78.513168,11.461428 79.499924,12.445601 80.834564,13.057400 
z"/>
<path fill="#EEF0F1" opacity="1.000000" stroke="none" 
	d="
M114.923782,13.200987 
	C103.942535,13.177196 92.961296,13.153404 81.513916,13.163195 
	C82.816132,12.491549 84.590340,11.167947 86.351845,11.184634 
	C95.592133,11.272172 104.829208,11.699010 114.521194,12.310353 
	C114.957924,12.808824 114.940849,13.004905 114.923782,13.200987 
z"/>
<path fill="#F1F3F4" opacity="1.000000" stroke="none" 
	d="
M115.116043,13.419598 
	C114.940849,13.004905 114.957924,12.808824 114.990120,12.318205 
	C115.641884,12.464034 116.278526,12.904401 116.960480,13.662360 
	C116.439957,13.866038 115.874130,13.752124 115.116043,13.419598 
z"/>
<path fill="#F6F7F7" opacity="1.000000" stroke="none" 
	d="
M3.006619,21.449261 
	C19.753624,20.993715 36.497578,21.095844 53.239285,20.946350 
	C59.162697,20.893457 65.141602,20.611641 70.976776,19.687117 
	C74.161903,19.182465 75.636902,20.181013 77.024818,22.976799 
	C76.619675,25.038410 76.054512,26.760109 74.992447,28.928558 
	C74.372086,29.972281 74.248619,30.569252 74.125153,31.166225 
	C74.125153,31.166225 74.126831,31.071201 73.775887,31.114243 
	C73.238045,31.973827 73.051147,32.790371 72.864250,33.606918 
	C72.864250,33.606918 72.835548,33.627884 72.850098,33.642544 
	C66.465660,28.229643 59.067139,30.887930 51.954826,31.007338 
	C45.561890,31.114672 39.163242,31.051966 32.769981,30.922636 
	C26.080374,30.787310 19.365473,29.986111 12.713300,30.370411 
	C2.977708,30.932842 2.997327,31.272448 3.006619,21.449261 
z"/>
<path fill="#1180B8" opacity="1.000000" stroke="none" 
	d="
M120.381050,65.802979 
	C120.069038,65.733292 119.757027,65.663605 118.794434,65.716644 
	C101.536087,68.829109 84.948021,68.295128 68.372253,65.561127 
	C68.372253,65.561127 68.248924,65.574097 67.970100,65.376343 
	C65.511169,64.709885 63.331059,64.241188 61.150951,63.772491 
	C61.150951,63.772491 61.051586,63.822960 60.876488,63.570908 
	C59.130936,62.900967 57.560486,62.483078 55.701378,61.859764 
	C53.276054,60.624718 51.139389,59.595089 48.921356,58.255875 
	C47.873642,57.646530 46.907299,57.346767 45.970074,57.024704 
	C45.999191,57.002403 45.958469,57.063454 45.943886,56.721840 
	C46.294643,55.247967 46.659977,54.115707 47.025311,52.983448 
	C47.207897,53.044781 47.390484,53.106113 47.828163,53.623352 
	C48.623661,54.399136 49.164062,54.719021 49.950085,55.325478 
	C55.135994,57.028309 60.076283,58.444572 65.250778,60.165634 
	C67.023254,60.608337 68.561516,60.746243 70.052353,60.900452 
	C70.004929,60.916759 70.056023,60.830444 70.243004,61.126575 
	C71.945679,61.355770 73.461380,61.288834 75.313339,61.175285 
	C76.091934,61.206070 76.534264,61.283474 77.099998,61.706772 
	C77.462418,62.272873 77.699707,62.683723 77.940674,62.685890 
	C89.126709,62.786556 100.313354,62.904041 111.498970,62.843155 
	C112.672333,62.836773 113.839836,61.753410 115.355804,61.077244 
	C116.651314,60.932568 117.601082,60.880363 118.977554,60.888542 
	C120.920418,60.583988 122.436569,60.219059 123.945030,59.885372 
	C123.937340,59.916618 123.904106,59.857948 124.325867,59.908787 
	C128.829865,58.618473 132.912125,57.277321 136.994370,55.936165 
	C136.994370,55.936169 137.173920,55.728035 137.684662,55.792660 
	C138.710114,55.436207 139.224838,55.015129 139.739563,54.594044 
	C139.739563,54.594040 139.841309,54.962513 140.141724,54.905651 
	C140.954239,54.890072 141.466324,54.931358 141.989563,54.986115 
	C142.000687,54.999592 142.027771,55.021740 141.901733,55.292656 
	C141.186676,56.358799 140.597656,57.154018 139.647644,58.014587 
	C132.984802,60.654282 126.682922,63.228630 120.381050,65.802979 
z"/>
<path fill="#F8F9F9" opacity="1.000000" stroke="none" 
	d="
M49.002724,58.565460 
	C51.139389,59.595089 53.276054,60.624718 55.701866,62.181484 
	C56.002728,63.137405 56.014446,63.566185 56.026161,63.994965 
	C52.437958,64.545006 48.862415,65.270805 45.253315,65.530861 
	C44.257053,65.602654 43.160812,64.286842 42.175644,64.176430 
	C29.472572,65.319206 16.699673,65.529503 3.452660,65.005402 
	C3.001171,58.002670 3.001170,58.001747 9.835635,58.000420 
	C16.279627,57.999165 22.725555,58.089832 29.166546,57.950737 
	C31.376110,57.903023 33.573318,57.282990 36.198997,56.855598 
	C36.725632,57.765121 37.601135,59.277153 38.739750,61.243595 
	C40.796509,58.604248 41.746872,57.384693 43.266930,56.218792 
	C44.543907,56.536118 45.251190,56.799786 45.958469,57.063454 
	C45.958469,57.063454 45.999191,57.002403 46.092709,57.300903 
	C47.125057,57.921421 48.063889,58.243443 49.002724,58.565460 
z"/>
<path fill="#B8E8F5" opacity="1.000000" stroke="none" 
	d="
M65.016571,59.860836 
	C60.076283,58.444572 55.135994,57.028309 49.964252,55.118073 
	C49.732800,54.624104 49.719463,54.208572 49.719463,54.208572 
	C52.956055,54.576077 56.192642,54.943581 59.788055,55.152298 
	C61.712276,55.761806 63.215450,56.965523 64.857117,57.200123 
	C67.571877,57.588081 70.375938,57.351158 73.544098,57.715603 
	C73.641968,58.990536 73.338127,59.927410 72.664810,60.929214 
	C71.548897,60.939579 70.802460,60.885010 70.056023,60.830444 
	C70.056023,60.830444 70.004929,60.916759 69.764374,60.660843 
	C68.021400,60.223564 66.518990,60.042198 65.016571,59.860836 
z"/>
<path fill="#2F87B5" opacity="1.000000" stroke="none" 
	d="
M45.943886,56.721840 
	C45.251190,56.799786 44.543907,56.536118 43.606178,56.080051 
	C43.375725,55.887657 43.248199,55.425266 43.138145,54.895493 
	C42.735401,54.071453 42.442715,53.777187 42.150028,53.482922 
	C41.811825,52.804195 41.473618,52.125473 41.033848,50.839939 
	C40.882004,49.505257 40.831722,48.777382 40.781441,48.049507 
	C40.890682,47.707882 40.999920,47.366253 41.427673,46.656052 
	C42.195694,45.871765 42.645206,45.456055 43.094719,45.040340 
	C44.295216,47.484356 45.495712,49.928371 46.860760,52.677917 
	C46.659977,54.115707 46.294643,55.247967 45.943886,56.721840 
z"/>
<path fill="#B8E8F5" opacity="1.000000" stroke="none" 
	d="
M67.639633,48.175282 
	C65.948364,48.709766 63.912186,49.396679 61.457264,50.040314 
	C63.123920,49.440594 65.209320,48.884155 67.639633,48.175282 
z"/>
<path fill="#F8F9F9" opacity="1.000000" stroke="none" 
	d="
M40.574005,48.246109 
	C40.831722,48.777382 40.882004,49.505257 40.883526,50.595352 
	C40.678703,50.119286 40.522640,49.280998 40.574005,48.246109 
z"/>
<path fill="#2F87B5" opacity="1.000000" stroke="none" 
	d="
M49.498077,54.129330 
	C49.719463,54.208572 49.732800,54.624104 49.718632,54.831505 
	C49.164062,54.719021 48.623661,54.399136 48.018158,53.841019 
	C48.394268,53.751884 48.835476,53.900986 49.498077,54.129330 
z"/>
<path fill="#F8F9F9" opacity="1.000000" stroke="none" 
	d="
M42.751621,45.065613 
	C42.645206,45.456055 42.195694,45.871765 41.436481,46.386795 
	C41.554028,46.021030 41.981274,45.555958 42.751621,45.065613 
z"/>
<path fill="#F8F9F9" opacity="1.000000" stroke="none" 
	d="
M42.185570,53.791458 
	C42.442715,53.777187 42.735401,54.071453 43.027222,54.682854 
	C42.757942,54.699993 42.489525,54.399994 42.185570,53.791458 
z"/>
<path fill="#B8E8F5" opacity="1.000000" stroke="none" 
	d="
M60.709091,50.109791 
	C60.863564,50.329613 60.723660,50.611961 60.366142,51.026352 
	C60.272102,50.846970 60.360832,50.518280 60.709091,50.109791 
z"/>
<path fill="#DFF0F7" opacity="1.000000" stroke="none" 
	d="
M120.865128,65.857498 
	C126.682922,63.228630 132.984802,60.654282 139.968765,58.087261 
	C141.081848,58.014423 141.512848,57.934254 141.943848,57.854088 
	C141.957977,58.327946 141.972107,58.801807 141.985596,59.630985 
	C137.435425,61.775745 132.885880,63.565182 128.162384,65.670303 
	C125.775352,65.961334 123.562279,65.936676 120.865128,65.857498 
z"/>
<path fill="#2A85B0" opacity="1.000000" stroke="none" 
	d="
M142.131927,57.606972 
	C141.512848,57.934254 141.081848,58.014423 140.329742,58.021912 
	C140.597656,57.154018 141.186676,56.358799 142.040070,55.231766 
	C142.195786,54.924187 142.087097,54.948414 141.978424,54.972641 
	C141.466324,54.931358 140.954239,54.890072 140.073456,54.727100 
	C140.443970,54.064766 141.183151,53.524120 142.411987,52.932693 
	C143.026642,52.609196 143.151642,52.336479 143.276642,52.063759 
	C143.986130,50.456699 144.695648,48.849640 145.514648,47.049652 
	C146.408539,47.241058 147.192947,47.625389 147.977371,48.009720 
	C147.977371,48.009724 148.048553,48.502007 147.785217,48.812721 
	C147.421509,49.248306 147.321152,49.373180 147.220779,49.498055 
	C147.473053,49.667984 147.725342,49.837917 147.977615,50.007851 
	C148.002960,50.175186 148.028320,50.342522 147.839310,50.953812 
	C147.622986,51.591526 147.621033,51.785290 147.619080,51.979050 
	C147.186462,52.203041 146.753845,52.427032 145.918762,52.961216 
	C145.361679,53.584484 145.207047,53.897556 145.062225,54.403557 
	C145.072037,54.596481 145.179153,54.967686 145.179153,54.967686 
	C144.226120,55.765076 143.273071,56.562469 142.131927,57.606972 
z"/>
<path fill="#EDF9FD" opacity="1.000000" stroke="none" 
	d="
M112.994644,57.861679 
	C114.355652,57.545673 115.716667,57.229668 117.799713,56.948792 
	C119.018028,56.989101 119.514290,56.994278 120.010559,56.999451 
	C120.564888,57.177650 121.119225,57.355854 121.736008,58.023560 
	C121.528076,58.959457 121.257698,59.405846 120.677719,59.949421 
	C119.937492,60.045109 119.506866,60.043613 118.603165,60.011803 
	C115.894348,60.112640 113.658607,60.243805 111.399445,60.588867 
	C110.995598,60.906940 110.615158,61.011116 109.870605,61.025105 
	C108.996277,59.925262 108.486069,58.915600 107.975853,57.905941 
	C107.975853,57.905941 108.435349,57.709312 109.009232,57.796242 
	C110.058502,57.958164 110.533897,58.033161 111.179688,58.314484 
	C111.898277,58.301098 112.446457,58.081387 112.994644,57.861679 
z"/>
<path fill="#D6F6FC" opacity="1.000000" stroke="none" 
	d="
M122.588020,54.049667 
	C125.103096,49.706749 126.847336,45.123306 124.956696,39.445248 
	C128.627670,42.353931 127.519302,50.747021 122.588020,54.049667 
z"/>
<path fill="#2A85B0" opacity="1.000000" stroke="none" 
	d="
M136.614105,55.948181 
	C132.912125,57.277321 128.829865,58.618473 124.593262,59.696152 
	C125.724442,59.006676 127.009979,58.580666 128.295517,58.154655 
	C130.941620,57.423172 133.587723,56.691685 136.614105,55.948181 
z"/>
<path fill="#F5F7F8" opacity="1.000000" stroke="none" 
	d="
M148.224548,47.823090 
	C147.192947,47.625389 146.408539,47.241058 145.406006,46.721725 
	C145.187897,45.672451 145.187897,44.758175 145.187897,43.843903 
	C145.515198,43.675076 145.842499,43.506245 146.169815,43.337418 
	C146.937103,44.770432 147.704407,46.203442 148.224548,47.823090 
z"/>
<path fill="#D6F6FC" opacity="1.000000" stroke="none" 
	d="
M127.845139,58.096817 
	C127.009979,58.580666 125.724442,59.006676 124.171509,59.645317 
	C123.904106,59.857948 123.937340,59.916618 123.573639,59.861649 
	C122.469070,59.821865 121.728195,59.837048 120.987320,59.852234 
	C121.257698,59.405846 121.528076,58.959457 121.899292,58.273109 
	C123.798347,58.035091 125.596550,58.037037 127.845139,58.096817 
z"/>
<path fill="#F5F7F8" opacity="1.000000" stroke="none" 
	d="
M139.733887,40.733063 
	C140.502975,40.650158 141.287140,40.851326 142.071289,41.052494 
	C141.917145,41.451576 141.763000,41.850658 141.608871,42.249741 
	C140.988892,41.838875 140.368927,41.428005 139.733887,40.733063 
z"/>
<path fill="#D6F6FC" opacity="1.000000" stroke="none" 
	d="
M124.032898,37.516609 
	C123.658401,37.451912 123.236214,37.081814 122.718353,36.441742 
	C123.076851,36.518250 123.531036,36.864731 124.032898,37.516609 
z"/>
<path fill="#D6F6FC" opacity="1.000000" stroke="none" 
	d="
M120.009293,56.727196 
	C119.514290,56.994278 119.018028,56.989101 118.150146,56.940598 
	C118.301125,56.576435 118.823715,56.255608 119.661224,55.923065 
	C119.986771,56.092545 119.997391,56.273739 120.009293,56.727196 
z"/>
<path fill="#2A85B0" opacity="1.000000" stroke="none" 
	d="
M139.413055,54.652954 
	C139.224838,55.015129 138.710114,55.436207 137.820755,55.811817 
	C137.992935,55.414852 138.539734,55.063354 139.413055,54.652954 
z"/>
<path fill="#D6F6FC" opacity="1.000000" stroke="none" 
	d="
M124.902756,38.831062 
	C124.595154,38.987404 124.349327,38.779579 124.184616,38.197956 
	C124.480095,38.068783 124.713028,38.283031 124.902756,38.831062 
z"/>
<path fill="#F5F7F8" opacity="1.000000" stroke="none" 
	d="
M145.365768,54.855347 
	C145.179153,54.967686 145.072037,54.596481 145.290649,54.332367 
	C145.509247,54.068256 145.982437,53.998478 145.982437,53.998478 
	C145.921707,54.294399 145.778351,54.542576 145.365768,54.855347 
z"/>
<path fill="#1180B8" opacity="1.000000" stroke="none" 
	d="
M146.013199,53.745995 
	C145.982437,53.998478 145.509247,54.068256 145.280838,54.139442 
	C145.207047,53.897556 145.361679,53.584484 145.741699,53.131031 
	C145.992706,53.158276 146.018341,53.325893 146.013199,53.745995 
z"/>
<path fill="#1180B8" opacity="1.000000" stroke="none" 
	d="
M143.034180,52.232079 
	C143.151642,52.336479 143.026642,52.609196 142.690063,52.891342 
	C142.582901,52.733974 142.687302,52.567184 143.034180,52.232079 
z"/>
<path fill="#F5F7F8" opacity="1.000000" stroke="none" 
	d="
M147.834442,51.951012 
	C147.621033,51.785290 147.622986,51.591526 147.844559,51.207626 
	C148.178741,51.246140 148.306290,51.470238 148.390366,51.709602 
	C148.400146,51.737404 148.169159,51.849796 147.834442,51.951012 
z"/>
<path fill="#F5F7F8" opacity="1.000000" stroke="none" 
	d="
M147.985962,49.754807 
	C147.725342,49.837917 147.473053,49.667984 147.220779,49.498055 
	C147.321152,49.373180 147.421509,49.248306 147.753952,49.059448 
	C147.988785,49.164230 147.991547,49.332993 147.985962,49.754807 
z"/>
<path fill="#DFF0F7" opacity="1.000000" stroke="none" 
	d="
M68.314423,65.990570 
	C84.948021,68.295128 101.536087,68.829109 118.581299,65.854401 
	C115.493401,66.908142 111.981239,68.770721 108.440163,68.827408 
	C98.743027,68.982643 89.034027,68.367889 79.329041,68.081284 
	C76.852020,68.008133 74.354912,68.186790 71.901329,67.926491 
	C70.647255,67.793434 69.469078,66.945068 68.314423,65.990570 
z"/>
<path fill="#C4F5FE" opacity="1.000000" stroke="none" 
	d="
M62.738270,74.819733 
	C65.567627,74.723907 68.152954,74.479660 70.738274,74.235420 
	C70.766014,74.699219 70.793747,75.163017 70.821487,75.626816 
	C66.725365,75.823265 62.629246,76.019714 58.533127,76.216171 
	C58.448162,75.763260 58.363197,75.310356 58.278233,74.857452 
	C59.053093,74.406273 59.827950,73.955093 60.799942,73.250534 
	C61.496124,73.555214 61.995178,74.113266 62.738270,74.819733 
z"/>
<path fill="#DFF0F7" opacity="1.000000" stroke="none" 
	d="
M61.170300,64.178978 
	C63.331059,64.241188 65.511169,64.709885 67.949554,65.434845 
	C65.868446,65.322556 63.529045,64.954010 61.170300,64.178978 
z"/>
<path fill="#DFF0F7" opacity="1.000000" stroke="none" 
	d="
M56.452133,63.993568 
	C56.014446,63.566185 56.002728,63.137405 55.990524,62.386909 
	C57.560486,62.483078 59.130936,62.900967 60.931320,63.580818 
	C59.733536,63.892582 58.305820,63.942379 56.452133,63.993568 
z"/>
<path fill="#F0F1F1" opacity="1.000000" stroke="none" 
	d="
M49.914246,69.839874 
	C50.003284,70.007263 49.504383,70.007912 49.254982,70.007629 
	C49.278786,69.895721 49.551994,69.784096 49.914246,69.839874 
z"/>
<path fill="#E7EAEB" opacity="1.000000" stroke="none" 
	d="
M100.888382,76.781784 
	C100.670883,76.901573 100.410919,76.713326 100.107681,76.217468 
	C100.324181,76.098534 100.584679,76.286499 100.888382,76.781784 
z"/>
<path fill="#F3FDFE" opacity="1.000000" stroke="none" 
	d="
M112.933525,49.230083 
	C107.506569,49.813232 102.437515,50.150738 97.041435,50.510014 
	C97.041435,46.308342 97.041435,42.928833 97.041435,39.037876 
	C101.108391,39.037876 104.931358,38.738579 108.674484,39.155708 
	C110.754440,39.387501 113.950310,40.401680 114.412399,41.800301 
	C115.088966,43.848022 113.763626,46.557163 112.933525,49.230083 
z"/>
<path fill="#E7F5F9" opacity="1.000000" stroke="none" 
	d="
M97.434647,30.585617 
	C97.096054,27.458467 97.096054,24.660206 97.096054,21.193401 
	C101.248535,21.193401 105.406464,20.704784 109.346710,21.418304 
	C111.080078,21.732193 113.602211,24.550737 113.527603,26.126068 
	C113.447403,27.819717 110.945168,30.441713 109.138351,30.791422 
	C105.479118,31.499662 101.575867,30.947189 97.434647,30.585617 
z"/>
<path fill="#E3FAFD" opacity="1.000000" stroke="none" 
	d="
M88.266815,47.078091 
	C88.266823,47.078091 88.198174,47.549286 87.838631,47.988029 
	C86.469627,50.552822 85.460167,52.678867 84.188484,55.357193 
	C83.587410,51.955757 83.169502,49.590816 82.751595,47.225880 
	C82.294975,47.249924 81.838364,47.273972 81.381744,47.298016 
	C80.254913,48.870384 79.128082,50.442757 77.946533,51.964790 
	C77.891815,51.914448 77.795555,51.801117 77.795555,51.801117 
	C77.760063,50.746029 77.389091,49.560211 77.741348,48.656216 
	C81.001686,40.289280 84.386787,31.970961 87.851227,24.279909 
	C88.066811,32.306900 88.166817,39.692493 88.266815,47.078091 
z"/>
<path fill="#EDF9FD" opacity="1.000000" stroke="none" 
	d="
M73.034279,60.864281 
	C73.338127,59.927410 73.641968,58.990536 74.007950,57.761330 
	C75.115852,55.694061 76.161613,53.919132 77.501465,51.972660 
	C77.795555,51.801117 77.891815,51.914448 78.099274,52.286339 
	C80.502335,58.643585 80.646202,58.698517 87.076660,56.186226 
	C87.355728,56.679844 87.595802,56.883549 88.114708,57.101067 
	C88.332397,57.186951 88.799736,57.161346 88.799736,57.161346 
	C88.799736,57.161346 88.849068,57.185596 89.004456,57.408318 
	C89.477440,57.611130 89.795036,57.591221 90.112640,57.571308 
	C90.112640,57.571308 90.570702,57.698112 91.018150,58.096199 
	C93.311607,58.294922 95.157616,58.095566 97.003624,57.896206 
	C99.714211,57.842270 102.424797,57.788334 105.561066,58.242310 
	C104.630440,59.498791 103.294014,60.850483 101.914520,60.895985 
	C94.198509,61.150486 86.472084,61.089344 78.453056,61.177753 
	C77.763458,61.266605 77.370018,61.313740 76.976585,61.360878 
	C76.534264,61.283474 76.091934,61.206070 74.997192,61.079403 
	C73.907944,60.974854 73.471115,60.919567 73.034279,60.864281 
z"/>
<path fill="#C4EAF4" opacity="1.000000" stroke="none" 
	d="
M86.976524,55.968372 
	C80.646202,58.698517 80.502335,58.643585 78.153992,52.336678 
	C79.128082,50.442757 80.254913,48.870384 81.381744,47.298016 
	C81.838364,47.273972 82.294975,47.249924 82.751595,47.225880 
	C83.169502,49.590816 83.587410,51.955757 84.188484,55.357193 
	C85.460167,52.678867 86.469627,50.552822 87.762344,48.213566 
	C88.123764,48.421131 88.201920,48.841908 88.180878,49.993305 
	C88.007866,51.844082 87.934059,52.964230 87.638748,54.245861 
	C87.270340,54.927685 87.123436,55.448029 86.976524,55.968372 
z"/>
<path fill="#D6F6FC" opacity="1.000000" stroke="none" 
	d="
M78.749222,61.136040 
	C86.472084,61.089344 94.198509,61.150486 101.914520,60.895985 
	C103.294014,60.850483 104.630440,59.498791 106.006332,58.327919 
	C106.462524,57.841015 106.899139,57.776402 107.655807,57.808865 
	C108.486069,58.915600 108.996277,59.925262 109.492828,61.226730 
	C99.235847,61.391041 88.992531,61.263538 78.749222,61.136040 
z"/>
<path fill="#65A6C5" opacity="1.000000" stroke="none" 
	d="
M88.489334,46.727097 
	C88.166817,39.692493 88.066811,32.306900 88.070389,24.464987 
	C88.353256,31.464481 88.532547,38.920292 88.489334,46.727097 
z"/>
<path fill="#65A6C5" opacity="1.000000" stroke="none" 
	d="
M87.860245,54.084381 
	C87.934059,52.964230 88.007866,51.844082 88.190063,50.316044 
	C88.501884,52.043556 88.705330,54.178955 88.854248,56.737850 
	C88.799736,57.161346 88.332397,57.186951 88.130577,56.734234 
	C87.905922,55.549137 87.883087,54.816761 87.860245,54.084381 
z"/>
<path fill="#D6F6FC" opacity="1.000000" stroke="none" 
	d="
M96.582794,57.796288 
	C95.157616,58.095566 93.311607,58.294922 91.230797,58.202293 
	C92.717987,57.838993 94.439980,57.767681 96.582794,57.796288 
z"/>
<path fill="#FCFDFD" opacity="1.000000" stroke="none" 
	d="
M73.163269,33.551476 
	C73.051147,32.790371 73.238045,31.973827 73.816750,31.138496 
	C73.959793,31.911819 73.711037,32.703930 73.163269,33.551476 
z"/>
<path fill="#65A6C5" opacity="1.000000" stroke="none" 
	d="
M111.009293,58.108162 
	C110.533897,58.033161 110.058502,57.958164 109.252243,57.737957 
	C109.831207,57.468243 110.741051,57.343739 111.619354,57.545860 
	C111.394981,57.951046 111.202141,58.029606 111.009293,58.108162 
z"/>
<path fill="#FCFDFD" opacity="1.000000" stroke="none" 
	d="
M74.380577,30.986111 
	C74.248619,30.569252 74.372086,29.972281 74.743851,29.186085 
	C74.873436,29.599907 74.754723,30.202950 74.380577,30.986111 
z"/>
<path fill="#D6F6FC" opacity="1.000000" stroke="none" 
	d="
M111.179688,58.314484 
	C111.202141,58.029606 111.394981,57.951046 111.858551,57.715782 
	C112.129272,57.559078 112.577919,57.665359 112.786285,57.763519 
	C112.446457,58.081387 111.898277,58.301098 111.179688,58.314484 
z"/>
<path fill="#65A6C5" opacity="1.000000" stroke="none" 
	d="
M89.952835,57.404716 
	C89.795036,57.591221 89.477440,57.611130 89.031242,57.414452 
	C89.206673,57.051430 89.503471,57.064850 89.952835,57.404716 
z"/>
<path fill="#2A85B0" opacity="1.000000" stroke="none" 
	d="
M78.453056,61.177753 
	C88.992531,61.263538 99.235847,61.391041 109.856941,61.316917 
	C110.615158,61.011116 110.995598,60.906940 111.650940,60.880753 
	C112.953918,61.029060 113.981987,61.099388 115.010063,61.169716 
	C113.839836,61.753410 112.672333,62.836773 111.498970,62.843155 
	C100.313354,62.904041 89.126709,62.786556 77.940674,62.685890 
	C77.699707,62.683723 77.462418,62.272873 77.099998,61.706768 
	C77.370018,61.313740 77.763458,61.266605 78.453056,61.177753 
z"/>
<path fill="#D6F6FC" opacity="1.000000" stroke="none" 
	d="
M115.355804,61.077244 
	C113.981987,61.099388 112.953918,61.029060 111.674355,60.666847 
	C113.658607,60.243805 115.894348,60.112640 118.469330,60.206612 
	C118.808571,60.431740 118.550842,60.828159 118.550842,60.828163 
	C117.601082,60.880363 116.651314,60.932568 115.355804,61.077244 
z"/>
<path fill="#2A85B0" opacity="1.000000" stroke="none" 
	d="
M118.977554,60.888542 
	C118.550842,60.828159 118.808571,60.431740 118.942413,60.236931 
	C119.506866,60.043613 119.937492,60.045109 120.677719,59.949417 
	C121.728195,59.837048 122.469070,59.821865 123.581329,59.830406 
	C122.436569,60.219059 120.920418,60.583988 118.977554,60.888542 
z"/>
<path fill="#2A85B0" opacity="1.000000" stroke="none" 
	d="
M72.664810,60.929214 
	C73.471115,60.919567 73.907944,60.974854 74.660927,61.126022 
	C73.461380,61.288834 71.945679,61.355770 70.243004,61.126575 
	C70.802460,60.885010 71.548897,60.939579 72.664810,60.929214 
z"/>
<path fill="#2A85B0" opacity="1.000000" stroke="none" 
	d="
M65.250778,60.165634 
	C66.518990,60.042198 68.021400,60.223564 69.811798,60.644539 
	C68.561516,60.746243 67.023254,60.608337 65.250778,60.165634 
z"/>
<path fill="#2F87B5" opacity="1.000000" stroke="none" 
	d="
M48.921356,58.255878 
	C48.063889,58.243443 47.125057,57.921421 46.063591,57.323204 
	C46.907299,57.346767 47.873642,57.646530 48.921356,58.255878 
z"/>
<path fill="#1180B8" opacity="1.000000" stroke="none" 
	d="
M141.989563,54.986115 
	C142.087097,54.948414 142.195786,54.924187 142.166107,54.960850 
	C142.027771,55.021740 142.000687,54.999592 141.989563,54.986115 
z"/>
<path fill="#E3FAFD" opacity="1.000000" stroke="none" 
	d="
M87.638748,54.245861 
	C87.883087,54.816761 87.905922,55.549137 87.912888,56.648350 
	C87.595802,56.883549 87.355728,56.679844 87.076660,56.186226 
	C87.123436,55.448029 87.270340,54.927685 87.638748,54.245861 
z"/>
</svg>